# xmcd
#
# Track frame offsets:
#	183
#	11345
#	25915
#	48215
#	62903
#	76033
#	89725
#	99968
#	110575
#	122938
#	134468
#	148108
#	165403
#	180895
#	192155
#	207548
#
# Disc length: 2907
#
# Revision: 2
# Processed by: cddbd v1.5.1PL0 Copyright (c) Steve Scherf et al.
# Submitted via: ExactAudioCopy v0.90b4
# Normalized: r1:DSETVAR1,TDELIM( - )
#
DISCID=d40b5910
DTITLE=Various Artist - 16 All Time Blues Hits - CD 4
DYEAR=1991
DGENRE=Blues
TTITLE0=Hooker, John Lee - Boom Boom
TTITLE1=Mayall, John - Why Worry
TTITLE2=Howlin' Wolf - Wang Dang Doodle
TTITLE3=King, B. B. - How Blue Can You Get
TTITLE4=Hooker, John Lee - I Love You Baby
TTITLE5=Waters, Muddy - I'm Ready
TTITLE6=Little Walter - Hate To See You Go
TTITLE7=Watson, Johnny Guitar - Reconsider Baby
TTITLE8=Howlin' Wolf - Goin' Back Home
TTITLE9=Beck, Jeff - Got To Hurry
TTITLE10=James, Elmore - Hand In Hand
TTITLE11=Bloomfield, Mike - Jockey Blues
TTITLE12=Williamson, Sonny Boy - Decoration Day
TTITLE13=Memphis Slim - Feelin' Low
TTITLE14=Williams, Big Joe - Nobody Knows When You're Down And Out
TTITLE15=Williamson, Sonny Boy - Fattening Frogs For Snakes
EXTD=All Time Music\nATM 071\n\n10 CD-Set Blues Sampler
EXTT0=
EXTT1=
EXTT2=
EXTT3=
EXTT4=
EXTT5=
EXTT6=
EXTT7=
EXTT8=
EXTT9=
EXTT10=
EXTT11=
EXTT12=
EXTT13=
EXTT14=
EXTT15=
PLAYORDER=
